<?xml version="1.0" standalone="no"?>
<!DOCTYPE svg PUBLIC "-//W3C//DTD SVG 20010904//EN"
 "http://www.w3.org/TR/2001/REC-SVG-20010904/DTD/svg10.dtd">
<svg version="1.0" xmlns="http://www.w3.org/2000/svg"
 width="2724.000000pt" height="2724.000000pt" viewBox="0 0 2724.000000 2724.000000"
 preserveAspectRatio="xMidYMid meet">
<metadata>
Created by potrace 1.14, written by Peter Selinger 2001-2017
</metadata>
<g transform="translate(0.000000,2724.000000) scale(0.100000,-0.100000)"
fill="#000000" stroke="none">
<path d="M2915 19140 c-4 -6 -9 -8 -13 -6 -4 2 -7 -20 -7 -50 0 -30 3 -54 7
-54 4 0 5 -7 1 -15 -9 -24 -9 -785 0 -785 5 0 5 -5 1 -11 -9 -15 -9 -303 0
-318 4 -6 4 -11 -1 -11 -4 0 -8 -356 -8 -790 0 -435 4 -790 8 -790 5 0 5 -5 1
-11 -9 -15 -9 -303 0 -318 4 -6 4 -11 -1 -11 -4 0 -8 -931 -8 -2070 0 -1138 4
-2070 8 -2070 5 0 5 -5 1 -11 -9 -15 -9 -303 0 -318 4 -6 4 -11 -1 -11 -4 0
-8 -356 -8 -790 0 -435 4 -790 8 -790 5 0 5 -5 1 -11 -9 -15 -9 -303 0 -318 4
-6 4 -11 -1 -11 -4 0 -8 -68 -8 -150 0 -83 4 -150 8 -150 5 0 5 -5 1 -11 -9
-15 -9 -303 0 -318 4 -6 4 -11 -1 -11 -4 0 -8 -356 -8 -790 0 -435 3 -790 7
-790 4 0 5 -7 1 -16 -3 -9 -6 -56 -7 -104 l-1 -89 330 -1 c182 -1 336 -2 343
-1 6 0 23 1 37 1 14 0 32 0 40 0 8 0 27 0 43 -1 15 0 36 1 47 1 24 1 -1 1 298
0 136 0 252 2 256 5 10 6 20 65 12 65 -9 0 -6 165 3 178 4 7 4 12 -1 12 -7 0
-9 77 -3 105 1 6 1 15 0 20 -5 24 -2 244 5 254 3 6 2 11 -4 11 -8 0 -8 20 -1
40 1 3 2 9 1 15 -7 33 -6 97 1 101 5 3 5 10 2 16 -10 16 -11 110 -1 131 4 10
4 17 -2 17 -8 0 -8 21 -1 40 1 3 2 9 1 15 -7 33 -6 97 1 101 5 3 5 10 2 16 -8
13 -8 233 0 246 4 6 253 9 689 9 376 0 688 2 693 5 5 4 9 291 8 693 0 443 3
688 10 692 5 4 318 7 695 7 l686 1 2 698 c0 384 4 701 8 705 9 9 5615 9 5609
1 -2 -4 7 -2 21 4 14 7 25 19 25 27 5 96 4 130 -3 130 -5 0 -5 5 -1 12 9 15
11 78 2 78 -4 0 -5 7 -2 15 9 23 10 135 1 135 -5 0 -5 5 -1 12 9 15 11 78 2
78 -4 0 -5 7 -2 15 9 23 10 135 1 135 -5 0 -5 5 -1 12 9 15 11 78 2 78 -4 0
-5 7 -2 15 9 23 10 135 1 135 -5 0 -5 5 -1 12 9 15 11 78 2 78 -4 0 -5 7 -2
15 9 23 10 135 1 135 -5 0 -5 5 -1 12 9 15 11 78 2 78 -4 0 -5 7 -2 15 9 23
10 135 1 135 -5 0 -5 5 -1 12 9 15 11 78 2 78 -4 0 -5 7 -2 15 9 23 10 135 1
135 -5 0 -5 5 -1 12 9 15 11 78 2 78 -4 0 -5 7 -2 15 9 23 10 135 1 135 -5 0
-5 5 -1 12 9 15 11 78 2 78 -4 0 -5 7 -2 15 9 23 10 135 1 135 -5 0 -5 5 -1
12 9 15 11 78 2 78 -4 0 -5 7 -2 15 9 23 10 135 1 135 -5 0 -5 5 -1 12 9 15
11 78 2 78 -4 0 -5 7 -2 15 9 23 10 135 1 135 -5 0 -5 5 -1 12 9 15 11 78 2
78 -4 0 -5 7 -2 15 9 23 10 135 1 135 -5 0 -5 5 -1 12 9 15 11 78 2 78 -4 0
-5 7 -2 15 9 23 10 135 1 135 -5 0 -5 5 -1 12 9 14 9 82 0 96 -4 7 -4 12 1 12
4 0 8 14 8 30 0 17 -4 30 -8 30 -5 0 -5 5 -1 12 10 16 11 68 1 68 -5 0 -5 5
-1 12 9 14 9 142 0 157 -4 6 -4 11 1 11 4 0 8 14 8 30 0 17 -4 30 -8 30 -5 0
-5 6 -1 12 11 18 11 62 -1 70 -7 5 -7 8 0 8 11 0 12 141 1 159 -4 6 -4 11 1
11 4 0 8 14 8 30 0 17 -4 30 -8 30 -5 0 -5 5 -1 12 10 16 11 68 1 68 -5 0 -5
5 -1 12 9 14 9 142 0 157 -4 6 -4 11 1 11 4 0 8 14 8 30 0 17 -4 30 -8 30 -5
0 -5 6 -1 12 11 18 11 62 -1 70 -7 5 -7 8 0 8 11 0 12 141 1 159 -4 6 -4 11 1
11 4 0 8 14 8 30 0 17 -4 30 -8 30 -5 0 -5 5 -1 12 10 16 11 68 1 68 -5 0 -5
5 -1 12 9 14 9 142 0 157 -4 6 -4 11 1 11 4 0 8 14 8 30 0 17 -4 30 -8 30 -5
0 -5 6 -1 12 11 18 11 62 -1 70 -7 5 -7 8 0 8 11 0 12 141 1 159 -4 6 -4 11 1
11 4 0 8 14 8 30 0 17 -4 30 -8 30 -5 0 -5 5 -1 12 10 16 11 68 1 68 -5 0 -5
5 -1 12 9 14 9 142 0 157 -4 6 -4 11 1 11 4 0 8 14 8 30 0 17 -4 30 -8 30 -5
0 -5 6 -1 12 11 18 11 62 -1 70 -7 5 -7 8 0 8 11 0 12 141 1 159 -4 6 -4 11 1
11 4 0 8 14 8 30 0 17 -4 30 -8 30 -5 0 -5 5 -1 12 10 16 11 68 1 68 -5 0 -5
5 -1 12 9 14 9 142 0 157 -4 6 -4 11 1 11 4 0 8 14 8 30 0 17 -4 30 -8 30 -5
0 -5 6 -1 12 11 18 11 62 -1 70 -7 5 -7 8 0 8 11 0 12 141 1 159 -4 6 -4 11 1
11 4 0 8 14 8 30 0 17 -4 30 -8 30 -5 0 -5 5 -1 12 10 16 11 68 1 68 -5 0 -5
5 -1 12 9 14 9 142 0 157 -4 6 -4 11 1 11 4 0 8 14 8 30 0 17 -4 30 -8 30 -5
0 -5 6 -1 12 11 18 11 62 -1 70 -7 5 -7 8 0 8 11 0 12 141 1 159 -4 6 -4 11 1
11 4 0 8 14 8 30 0 17 -4 30 -8 30 -5 0 -5 5 -1 12 10 16 11 68 1 68 -5 0 -5
5 -1 12 9 14 9 142 0 157 -4 6 -4 11 1 11 4 0 8 14 8 30 0 17 -4 30 -8 30 -5
0 -5 5 -1 12 11 18 10 68 -1 68 -7 0 -7 3 0 8 6 4 10 39 10 77 0 39 -4 73 -10
77 -7 5 -7 8 0 8 8 0 12 139 4 160 -1 3 -1 8 0 13 1 10 -22 4 -31 -8 -5 -7 -8
-6 -8 1 0 9 -63 12 -95 4 -5 -1 -12 -1 -15 0 -19 7 -41 7 -45 -1 -3 -4 -16 -5
-28 -1 -12 4 -74 7 -137 5 -137 -4 -99 -4 -303 0 -106 1 -167 -2 -167 -8 0 -7
-3 -7 -8 0 -4 6 -69 10 -157 10 -88 0 -153 -4 -157 -10 -5 -7 -8 -7 -8 0 0 6
-51 9 -137 7 -76 -1 -142 -2 -148 -2 -5 0 -32 1 -60 3 -27 2 -58 0 -67 -5 -9
-4 -19 -4 -22 1 -5 8 -27 8 -46 1 -3 -1 -9 -1 -15 0 -33 8 -295 4 -295 -5 0
-6 -3 -6 -8 0 -6 9 -68 13 -97 5 -5 -1 -12 -1 -15 0 -19 7 -41 7 -45 -1 -3 -4
-16 -5 -28 -1 -12 4 -74 7 -137 5 -137 -4 -100 -4 -303 0 -106 1 -167 -2 -167
-8 0 -7 -3 -7 -8 0 -4 6 -69 10 -157 10 -88 0 -153 -4 -157 -10 -5 -7 -8 -7
-8 0 0 6 -51 9 -137 7 -76 -1 -142 -2 -148 -2 -5 0 -32 1 -60 3 -27 2 -58 0
-67 -5 -9 -4 -19 -4 -22 1 -5 8 -27 8 -46 1 -3 -1 -9 -1 -15 0 -33 8 -295 4
-295 -5 0 -6 -3 -6 -8 0 -6 9 -68 13 -97 5 -5 -1 -12 -1 -15 0 -19 7 -41 7
-45 -1 -3 -4 -16 -5 -28 -1 -12 4 -74 7 -137 5 -137 -4 -100 -4 -303 0 -106 1
-167 -2 -167 -8 0 -7 -3 -7 -8 0 -4 6 -69 10 -157 10 -88 0 -153 -4 -157 -10
-5 -7 -8 -7 -8 0 0 6 -58 10 -155 10 -97 0 -155 -4 -155 -10 0 -7 -3 -7 -8 0
-4 6 -69 10 -157 10 -88 0 -153 -4 -157 -10 -5 -7 -8 -7 -8 0 0 6 -51 9 -137
7 -76 -1 -142 -2 -148 -2 -5 0 -32 1 -60 3 -27 2 -58 0 -67 -5 -9 -4 -19 -4
-22 1 -5 8 -27 8 -46 1 -3 -1 -9 -1 -15 0 -33 8 -295 4 -295 -5 0 -6 -3 -6 -8
0 -6 9 -68 13 -97 5 -5 -1 -12 -1 -15 0 -19 7 -41 7 -45 -1 -3 -4 -16 -5 -28
-1 -12 4 -74 7 -137 5 -137 -4 -100 -4 -303 0 -106 1 -167 -2 -167 -8 0 -7 -3
-7 -8 0 -4 6 -69 10 -157 10 -88 0 -153 -4 -157 -10 -5 -7 -8 -7 -8 0 0 6 -58
10 -155 10 -97 0 -155 -4 -155 -10 0 -7 -3 -7 -8 0 -4 6 -69 10 -157 10 -88 0
-153 -4 -157 -10 -5 -7 -8 -7 -8 0 0 6 -51 9 -137 7 -76 -1 -142 -2 -148 -2
-5 0 -32 1 -60 3 -27 2 -58 0 -67 -5 -9 -4 -19 -4 -22 1 -5 8 -27 8 -46 1 -3
-1 -9 -1 -15 0 -33 8 -295 4 -295 -5 0 -6 -3 -6 -8 0 -6 9 -68 13 -97 5 -5 -1
-12 -1 -15 0 -19 7 -41 7 -45 -1 -3 -4 -16 -5 -28 -1 -12 4 -74 7 -137 5 -137
-4 -100 -4 -303 0 -106 1 -167 -2 -167 -8 0 -7 -3 -7 -8 0 -10 14 -30 17 -37
5z"/>
<path d="M15153 19131 c-10 -9 -11 -17 -3 -25 5 -7 7 -15 4 -19 -3 -3 -6
-2691 -6 -5974 l0 -5968 31 -6 c17 -4 33 -4 35 -1 3 3 32 4 63 4 32 -1 225 -1
428 -1 204 0 376 0 383 0 6 0 23 -1 37 -1 14 0 32 0 40 0 8 0 26 0 40 0 14 0
33 0 43 1 9 0 77 0 151 0 74 0 137 1 140 4 4 2 6 316 6 698 l0 694 693 0 c381
0 696 3 699 7 11 11 10 46 -1 46 -6 0 -6 4 1 11 8 8 8 20 3 35 -5 13 -6 24 -2
24 4 0 7 11 7 25 0 14 -4 25 -10 25 -5 0 -4 5 2 11 8 8 8 20 3 35 -5 13 -6 24
-2 24 4 0 7 11 7 25 0 14 -4 25 -9 25 -5 0 -4 6 2 13 7 8 7 18 2 27 -5 8 -6
19 -2 24 9 15 10 46 1 46 -4 0 -4 13 1 29 5 19 4 33 -3 40 -6 6 -7 11 -2 11 6
0 10 11 10 25 0 14 -4 25 -9 25 -5 0 -4 6 2 13 7 8 7 18 2 27 -5 8 -6 19 -2
24 9 15 10 46 1 46 -4 0 -4 12 0 28 5 15 4 37 0 50 -5 13 -5 21 -1 18 4 -2 8
13 7 35 0 21 -4 39 -10 39 -5 0 -4 5 2 11 8 8 8 20 3 35 -5 13 -6 24 -2 24 4
0 7 11 7 25 0 14 -4 25 -9 25 -5 0 -4 6 2 13 7 8 7 18 2 27 -5 8 -6 19 -2 24
9 15 10 46 1 46 -4 0 -4 13 1 29 5 19 4 33 -3 40 -6 6 -7 11 -2 11 6 0 10 11
10 25 0 14 -4 25 -9 25 -5 0 -4 6 2 13 7 8 7 18 2 27 -5 8 -6 19 -2 24 9 15
10 46 1 46 -4 0 -4 13 1 28 4 16 4 36 -2 45 -6 11 -5 17 2 17 5 0 10 6 10 13
0 9 145 12 695 11 l694 -1 -2 64 c-1 36 1 67 5 69 5 3 6 10 2 16 -9 14 -9 272
0 286 4 7 4 12 -1 12 -9 0 -9 157 0 166 3 3 3 13 0 21 -9 22 -8 106 0 121 5 6
5 12 0 12 -7 0 -9 154 -3 170 1 3 1 10 0 15 -5 22 -1 145 5 155 3 5 3 10 -2
10 -10 0 -9 162 1 178 4 7 4 12 -1 12 -13 0 -9 84 5 95 9 7 932 10 2823 10
1545 0 2817 3 2827 7 9 4 12 7 6 7 -6 1 -9 20 -7 49 2 26 4 52 4 57 0 6 -1 24
-2 40 -1 17 0 32 1 35 5 15 5 58 -1 54 -6 -3 -5 71 1 101 2 6 1 12 0 15 -6 17
-5 50 2 50 5 0 4 9 -2 19 -7 14 -6 21 3 24 6 3 7 6 2 6 -11 1 -11 72 -1 98 3
8 2 12 -3 9 -5 -3 -7 18 -4 47 2 28 4 57 4 62 0 6 -1 24 -2 40 -1 17 0 32 1
35 5 15 5 58 -1 54 -4 -2 -5 20 -2 49 2 28 4 57 4 62 0 6 -1 24 -2 40 -1 17 0
32 1 35 5 15 5 58 -1 54 -4 -2 -5 20 -2 49 2 28 4 57 4 62 0 6 -1 24 -2 40 -1
17 0 32 1 35 5 15 5 58 -1 54 -4 -2 -5 20 -2 49 2 28 4 57 4 62 0 6 -1 24 -2
40 -1 17 0 32 1 35 5 15 5 58 -1 54 -6 -3 -5 71 1 101 2 6 1 12 0 15 -6 17 -5
50 2 50 5 0 4 9 -2 19 -7 14 -6 21 3 24 6 3 8 6 2 6 -11 1 -13 157 -2 167 3 3
2 16 -3 29 -5 14 -5 26 3 34 7 7 7 11 1 11 -6 0 -9 20 -7 48 4 53 4 48 0 122
-1 30 1 64 4 76 4 11 3 27 -1 34 -5 9 -4 20 2 27 6 7 6 13 1 13 -9 0 -9 82 1
98 2 4 1 14 -4 21 -4 8 -4 27 0 43 5 15 5 26 1 23 -5 -2 -7 19 -4 48 2 28 4
57 4 62 0 6 -1 24 -2 40 -1 17 0 32 1 35 5 15 5 58 -1 54 -4 -2 -5 20 -2 49 2
28 4 57 4 62 0 6 -1 24 -2 40 -1 17 0 32 1 35 5 15 5 58 -1 54 -4 -2 -5 20 -2
49 2 28 4 57 4 62 0 6 -1 24 -2 40 -1 17 0 32 1 35 5 15 5 58 -1 54 -4 -2 -5
20 -2 49 2 28 4 57 4 62 0 6 -1 24 -2 40 -1 17 0 32 1 35 5 15 5 58 -1 54 -6
-3 -5 71 1 101 2 6 1 12 0 15 -6 17 -5 50 2 50 5 0 4 9 -2 19 -7 14 -6 21 3
24 6 3 8 6 2 6 -11 1 -13 157 -2 167 3 3 2 16 -3 29 -5 14 -5 26 3 34 7 7 7
11 1 11 -6 0 -9 20 -7 48 4 53 4 48 0 122 -1 30 1 64 4 76 4 11 3 27 -1 34 -5
9 -4 20 2 27 6 7 6 13 1 13 -9 0 -9 82 1 98 2 4 1 14 -4 21 -4 8 -4 27 0 43 5
15 5 26 1 23 -5 -2 -7 19 -4 48 2 28 4 57 4 62 0 6 -1 24 -2 40 -1 17 0 32 1
35 5 15 5 58 -1 54 -4 -2 -5 20 -2 49 2 28 4 57 4 62 0 6 -1 24 -2 40 -1 17 0
32 1 35 5 15 5 58 -1 54 -4 -2 -5 20 -2 49 2 28 4 57 4 62 0 6 -1 24 -2 40 -1
17 0 32 1 35 5 15 5 58 -1 54 -4 -2 -5 20 -2 49 2 28 4 57 4 62 0 6 -1 24 -2
40 -1 17 0 32 1 35 5 15 5 58 -1 54 -6 -3 -5 71 1 101 2 6 1 12 0 15 -6 17 -5
50 2 50 5 0 4 9 -2 19 -7 14 -6 21 3 24 6 3 7 6 2 6 -11 1 -11 72 -1 98 3 8 2
12 -3 9 -5 -3 -7 18 -4 47 2 28 4 57 4 62 0 6 -1 24 -2 40 -1 17 0 32 1 35 5
15 5 58 -1 54 -4 -2 -5 20 -2 49 2 28 4 57 4 62 0 6 -1 24 -2 40 -1 17 0 32 1
35 5 15 5 58 -1 54 -4 -2 -5 20 -2 49 2 28 4 57 4 62 0 6 -1 24 -2 40 -1 17 0
32 1 35 5 15 5 58 -1 54 -4 -2 -5 20 -2 49 2 28 4 57 4 62 0 6 -1 24 -2 40 -1
17 0 32 1 35 5 15 5 58 -1 54 -6 -3 -5 71 1 101 2 6 1 12 0 15 -6 17 -5 50 2
50 5 0 4 9 -2 19 -7 14 -6 21 3 24 6 3 8 6 2 6 -11 1 -13 157 -2 167 3 3 2 16
-3 29 -5 14 -5 26 3 34 7 7 7 11 1 11 -6 0 -9 20 -7 48 4 53 4 48 0 122 -1 30
1 64 4 76 4 11 3 27 -1 34 -5 9 -4 20 2 27 6 7 6 13 1 13 -9 0 -9 82 1 98 2 4
1 14 -4 21 -4 8 -4 27 0 43 5 15 5 26 1 23 -5 -2 -7 19 -4 48 6 66 6 87 0 112
-3 11 -6 23 -6 28 -1 6 -15 6 -56 -3 -5 -1 -12 -1 -15 0 -19 7 -41 7 -46 -1
-3 -5 -10 -6 -16 -3 -18 12 -298 10 -298 -1 0 -6 -3 -6 -8 0 -6 9 -68 13 -97
5 -5 -1 -12 -1 -15 0 -19 7 -41 7 -45 -1 -3 -4 -16 -4 -30 1 -21 8 -31 8 -70
0 -5 -1 -12 -1 -15 0 -19 7 -41 7 -46 -1 -3 -5 -10 -6 -16 -3 -18 12 -298 10
-298 -1 0 -6 -3 -6 -8 0 -6 9 -68 13 -97 5 -5 -1 -12 -1 -15 0 -19 7 -41 7
-45 -1 -3 -4 -16 -4 -30 1 -21 8 -31 8 -70 0 -5 -1 -12 -1 -15 0 -19 7 -41 7
-46 -1 -3 -5 -10 -6 -16 -3 -18 12 -298 10 -298 -1 0 -6 -3 -6 -8 0 -6 9 -68
13 -97 5 -5 -1 -12 -1 -15 0 -19 7 -41 7 -45 -1 -3 -4 -16 -5 -28 -1 -12 4
-74 7 -137 5 -63 -2 -119 -3 -125 -3 -5 0 -32 1 -60 3 -27 2 -58 0 -67 -5 -9
-4 -19 -4 -22 1 -5 8 -27 8 -46 1 -3 -1 -9 -1 -15 0 -33 8 -295 4 -295 -5 0
-6 -3 -6 -8 0 -6 9 -68 13 -97 5 -5 -1 -12 -1 -15 0 -19 7 -41 7 -45 -1 -3 -4
-16 -5 -28 -1 -12 4 -74 7 -137 5 -137 -4 -100 -4 -303 0 -106 1 -167 -2 -167
-8 0 -7 -3 -7 -8 0 -4 6 -69 10 -157 10 -88 0 -153 -4 -157 -10 -5 -7 -8 -7
-8 0 0 6 -51 9 -137 7 -76 -1 -142 -2 -148 -2 -5 0 -32 1 -60 3 -27 2 -58 0
-67 -5 -9 -4 -19 -4 -22 1 -5 8 -27 8 -46 1 -3 -1 -9 -1 -15 0 -33 8 -295 4
-295 -5 0 -6 -3 -6 -8 0 -6 9 -68 13 -97 5 -5 -1 -12 -1 -15 0 -19 7 -41 7
-45 -1 -3 -4 -16 -5 -28 -1 -12 4 -74 7 -137 5 -137 -4 -100 -4 -303 0 -106 1
-167 -2 -167 -8 0 -7 -3 -7 -8 0 -4 6 -69 10 -157 10 -88 0 -153 -4 -157 -10
-5 -7 -8 -7 -8 0 0 6 -51 9 -137 7 -76 -1 -142 -2 -148 -2 -5 0 -32 1 -60 3
-27 2 -58 0 -67 -5 -9 -4 -19 -4 -22 1 -5 8 -27 8 -46 1 -3 -1 -9 -1 -15 0
-33 8 -295 4 -295 -5 0 -6 -3 -6 -8 0 -6 9 -68 13 -97 5 -5 -1 -12 -1 -15 0
-19 7 -41 7 -45 -1 -3 -4 -16 -5 -28 -1 -12 4 -74 7 -137 5 -63 -2 -119 -3
-125 -3 -5 0 -32 1 -60 3 -27 2 -58 0 -67 -5 -9 -4 -19 -4 -22 1 -5 8 -27 8
-46 1 -3 -1 -9 -1 -15 0 -33 8 -295 4 -295 -5 0 -6 -3 -6 -8 0 -6 9 -68 13
-97 5 -5 -1 -12 -1 -15 0 -19 7 -41 7 -45 -1 -3 -4 -16 -4 -30 1 -21 8 -31 8
-70 0 -5 -1 -12 -1 -15 0 -19 7 -41 7 -46 -1 -3 -5 -10 -6 -16 -3 -18 12 -298
10 -298 -1 0 -6 -3 -6 -8 0 -6 9 -68 13 -97 5 -5 -1 -12 -1 -15 0 -19 7 -41 7
-45 -1 -3 -4 -16 -4 -30 1 -21 8 -31 8 -70 0 -5 -1 -12 -1 -15 0 -19 7 -41 7
-46 -1 -3 -5 -10 -6 -16 -3 -18 12 -298 10 -298 -1 0 -6 -3 -6 -8 0 -6 9 -68
13 -97 5 -5 -1 -12 -1 -15 0 -19 7 -41 7 -45 -1 -3 -4 -16 -4 -30 1 -21 8 -31
8 -70 0 -5 -1 -12 -1 -15 0 -19 7 -41 7 -46 -1 -3 -5 -10 -6 -16 -3 -18 12
-298 10 -298 -1 0 -6 -3 -6 -8 0 -6 9 -68 13 -97 5 -5 -1 -12 -1 -15 0 -19 7
-41 7 -46 -1 -3 -5 -10 -6 -16 -3 -6 4 -65 8 -131 8 -89 1 -124 -3 -134 -13z"/>
</g>
</svg>
